<?xml version="1.0" encoding="utf-8"?>
<svg version="1.1" xmlns:xlink="http://www.w3.org/1999/xlink" width="30px" height="25px" xmlns="http://www.w3.org/2000/svg">
  <g transform="matrix(1 0 0 1 -594 -118 )">
    <path d="M 6.48499210110584 6.77392739273927  C 6.87993680884676 6.36138613861386  7.07740916271722 5.86358635863586  7.07740916271722 5.28052805280528  C 7.07740916271722 4.69746974697469  6.87993680884676 4.1996699669967  6.48499210110584 3.78712871287129  C 6.09004739336493 3.37458745874588  5.61348077935756 3.16831683168317  5.05529225908373 3.16831683168317  C 4.4971037388099 3.16831683168317  4.02053712480253 3.37458745874588  3.62559241706161 3.78712871287129  C 3.23064770932069 4.1996699669967  3.03317535545024 4.69746974697469  3.03317535545024 5.28052805280528  C 3.03317535545024 5.86358635863586  3.23064770932069 6.36138613861386  3.62559241706161 6.77392739273927  C 4.02053712480253 7.18646864686469  4.4971037388099 7.39273927392739  5.05529225908373 7.39273927392739  C 5.61348077935756 7.39273927392739  6.09004739336493 7.18646864686469  6.48499210110584 6.77392739273927  Z M 23.349131121643 13.2838283828383  C 23.7388098999473 13.7128712871287  23.9336492890995 14.2134213421342  23.9336492890995 14.7854785478548  C 23.9336492890995 15.3685368536854  23.7388098999473 15.8635863586359  23.349131121643 16.2706270627063  L 15.5924170616114 24.3894389438944  C 15.1816745655608 24.7964796479648  14.7024749868352 25  14.1548183254344 25  C 13.5966298051606 25  13.1226961558715 24.7964796479648  12.7330173775671 24.3894389438944  L 1.43759873617694 12.5742574257426  C 1.03738809899947 12.1672167216722  0.697735650342285 11.6116611661166  0.418641390205371 10.9075907590759  C 0.139547130068457 10.2035203520352  0 9.55995599559956  0 8.97689768976898  L 0 2.11221122112211  C 0 1.54015401540154  0.200105318588731 1.04510451045104  0.600315955766193 0.627062706270626  C 1.00052659294365 0.209020902090207  1.47446024223275 0  2.02211690363349 0  L 8.59399684044234 0  C 9.15218536071617 0  9.768299104792 0.145764576457644  10.4423380726698 0.437293729372937  C 11.1163770405477 0.728822882288227  11.6535018430753 1.08360836083608  12.0537124802528 1.5016501650165  L 23.349131121643 13.2838283828383  Z M 29.4154818325434 13.2838283828383  C 29.8051606108478 13.7128712871287  30 14.2134213421342  30 14.7854785478548  C 30 15.3685368536854  29.8051606108478 15.8635863586359  29.4154818325434 16.2706270627063  L 21.6587677725119 24.3894389438944  C 21.2480252764613 24.7964796479648  20.7688256977357 25  20.2211690363349 25  C 19.8420221169036 25  19.5313322801474 24.9229922992299  19.2890995260664 24.7689768976898  C 19.0468667719853 24.6149614961496  18.7677725118483 24.3674367436744  18.4518167456556 24.026402640264  L 25.8767772511848 16.2706270627063  C 26.2664560294892 15.8635863586359  26.4612954186414 15.3685368536854  26.4612954186414 14.7854785478548  C 26.4612954186414 14.2134213421342  26.2664560294892 13.7128712871287  25.8767772511848 13.2838283828383  L 14.5813586097946 1.5016501650165  C 14.1811479726172 1.08360836083608  13.6440231700895 0.728822882288227  12.9699842022117 0.437293729372937  C 12.2959452343339 0.145764576457644  11.679831490258 0  11.1216429699842 0  L 14.6603475513428 0  C 15.2185360716166 0  15.8346498156925 0.145764576457644  16.5086887835703 0.437293729372937  C 17.1827277514481 0.728822882288227  17.7198525539758 1.08360836083608  18.1200631911532 1.5016501650165  L 29.4154818325434 13.2838283828383  Z " fill-rule="nonzero" fill="#facd91" stroke="none" transform="matrix(1 0 0 1 594 118 )" />
  </g>
</svg>