<?xml version="1.0" encoding="utf-8"?>
<svg version="1.1" xmlns:xlink="http://www.w3.org/1999/xlink" width="30px" height="30px" xmlns="http://www.w3.org/2000/svg">
  <g transform="matrix(1 0 0 1 -366 -115 )">
    <path d="M 24.5703125 22.7734375  C 24.8567708333333 22.0833333333333  25 21.42578125  25 20.80078125  C 25 20.6575520833333  24.9869791666667 20.5533854166667  24.9609375 20.48828125  C 24.9348958333333 20.4231770833333  24.8177083333333 20.3157552083333  24.609375 20.166015625  C 24.4010416666667 20.0162760416667  24.1373697916667 19.853515625  23.818359375 19.677734375  C 23.4993489583333 19.501953125  23.1901041666667 19.3294270833333  22.890625 19.16015625  C 22.5911458333333 18.9908854166667  22.294921875 18.828125  22.001953125 18.671875  C 21.708984375 18.515625  21.5234375 18.41796875  21.4453125 18.37890625  C 21.3802083333333 18.33984375  21.2565104166667 18.2552083333333  21.07421875 18.125  C 20.8919270833333 17.9947916666667  20.7291666666667 17.8971354166667  20.5859375 17.83203125  C 20.4427083333333 17.7669270833333  20.3059895833333 17.734375  20.17578125 17.734375  C 19.98046875 17.734375  19.7428385416667 17.8678385416667  19.462890625 18.134765625  C 19.1829427083333 18.4016927083333  18.92578125 18.6946614583333  18.69140625 19.013671875  C 18.45703125 19.3326822916667  18.2063802083333 19.6256510416667  17.939453125 19.892578125  C 17.6725260416667 20.1595052083333  17.4544270833333 20.29296875  17.28515625 20.29296875  C 17.1940104166667 20.29296875  17.0865885416667 20.2701822916667  16.962890625 20.224609375  C 16.8391927083333 20.1790364583333  16.73828125 20.13671875  16.66015625 20.09765625  C 16.58203125 20.05859375  16.4713541666667 19.9967447916667  16.328125 19.912109375  C 16.1848958333333 19.8274739583333  16.09375 19.7721354166667  16.0546875 19.74609375  C 14.765625 19.0299479166667  13.6588541666667 18.2063802083333  12.734375 17.275390625  C 11.8098958333333 16.3444010416667  10.9830729166667 15.234375  10.25390625 13.9453125  C 10.2278645833333 13.90625  10.1725260416667 13.8151041666667  10.087890625 13.671875  C 10.0032552083333 13.5286458333333  9.94140625 13.41796875  9.90234375 13.33984375  C 9.86328125 13.26171875  9.82096354166667 13.1608072916667  9.775390625 13.037109375  C 9.72981770833333 12.9134114583333  9.70703125 12.8059895833333  9.70703125 12.71484375  C 9.70703125 12.5455729166667  9.84049479166667 12.3274739583333  10.107421875 12.060546875  C 10.3743489583333 11.7936197916667  10.6673177083333 11.54296875  10.986328125 11.30859375  C 11.3053385416667 11.07421875  11.5983072916667 10.8170572916667  11.865234375 10.537109375  C 12.1321614583333 10.2571614583333  12.265625 10.01953125  12.265625 9.82421875  C 12.265625 9.69401041666666  12.2330729166667 9.55729166666666  12.16796875 9.4140625  C 12.1028645833333 9.27083333333333  12.0052083333333 9.10807291666666  11.875 8.92578125  C 11.7447916666667 8.74348958333333  11.66015625 8.61979166666666  11.62109375 8.5546875  C 11.58203125 8.4765625  11.484375 8.291015625  11.328125 7.998046875  C 11.171875 7.705078125  11.0091145833333 7.40885416666666  10.83984375 7.109375  C 10.6705729166667 6.80989583333333  10.498046875 6.50065104166666  10.322265625 6.181640625  C 10.146484375 5.86263020833333  9.98372395833333 5.59895833333333  9.833984375 5.390625  C 9.68424479166667 5.18229166666666  9.57682291666667 5.06510416666666  9.51171875 5.0390625  C 9.44661458333333 5.01302083333333  9.34244791666667 5  9.19921875 5  C 8.57421875 5  7.91666666666667 5.14322916666667  7.2265625 5.4296875  C 6.62760416666667 5.703125  6.10677083333333 6.318359375  5.6640625 7.275390625  C 5.22135416666667 8.232421875  5 9.08203125  5 9.82421875  C 5 10.0325520833333  5.01627604166667 10.25390625  5.048828125 10.48828125  C 5.08138020833333 10.72265625  5.11393229166667 10.9212239583333  5.146484375 11.083984375  C 5.17903645833333 11.2467447916667  5.23763020833333 11.4615885416667  5.322265625 11.728515625  C 5.40690104166667 11.9954427083333  5.47200520833333 12.1875  5.517578125 12.3046875  C 5.56315104166667 12.421875  5.64453125 12.63671875  5.76171875 12.94921875  C 5.87890625 13.26171875  5.95052083333333 13.45703125  5.9765625 13.53515625  C 6.7578125 15.6705729166667  8.16731770833333 17.7571614583333  10.205078125 19.794921875  C 12.2428385416667 21.8326822916667  14.3294270833333 23.2421875  16.46484375 24.0234375  C 16.54296875 24.0494791666667  16.73828125 24.12109375  17.05078125 24.23828125  C 17.36328125 24.35546875  17.578125 24.4368489583333  17.6953125 24.482421875  C 17.8125 24.5279947916667  18.0045572916667 24.5930989583333  18.271484375 24.677734375  C 18.5384114583333 24.7623697916667  18.7532552083333 24.8209635416667  18.916015625 24.853515625  C 19.0787760416667 24.8860677083333  19.27734375 24.9186197916667  19.51171875 24.951171875  C 19.74609375 24.9837239583333  19.9674479166667 25  20.17578125 25  C 20.91796875 25  21.767578125 24.7786458333333  22.724609375 24.3359375  C 23.681640625 23.8932291666667  24.296875 23.3723958333333  24.5703125 22.7734375  Z M 28.349609375 1.650390625  C 29.4498697916667 2.75065104166666  30 4.07552083333333  30 5.625  L 30 24.375  C 30 25.9244791666667  29.4498697916667 27.2493489583333  28.349609375 28.349609375  C 27.2493489583333 29.4498697916667  25.9244791666667 30  24.375 30  L 5.625 30  C 4.07552083333333 30  2.75065104166667 29.4498697916667  1.650390625 28.349609375  C 0.550130208333333 27.2493489583333  0 25.9244791666667  0 24.375  L 0 5.625  C 0 4.07552083333333  0.550130208333333 2.75065104166666  1.650390625 1.650390625  C 2.75065104166667 0.550130208333331  4.07552083333333 0  5.625 0  L 24.375 0  C 25.9244791666667 0  27.2493489583333 0.550130208333331  28.349609375 1.650390625  Z " fill-rule="nonzero" fill="#facd91" stroke="none" transform="matrix(1 0 0 1 366 115 )" />
  </g>
</svg>