<?xml version="1.0" encoding="utf-8"?>
<svg version="1.1" xmlns:xlink="http://www.w3.org/1999/xlink" width="95px" height="12px" preserveAspectRatio="xMinYMid meet" viewBox="1530 1698  95 10" xmlns="http://www.w3.org/2000/svg">
  <path d="M 1431 554.5  L 1531 554.5  A 5 5 0 0 1 1536.5 559.5 L 1536.5 1698  A 5 5 0 0 0 1541.5 1703.5 L 1622 1703.5  " stroke-width="3" stroke-dasharray="9,3" stroke="#70b603" fill="none" />
  <path d="M 1432 550.5  A 4 4 0 0 0 1428 554.5 A 4 4 0 0 0 1432 558.5 A 4 4 0 0 0 1436 554.5 A 4 4 0 0 0 1432 550.5 Z M 1612.9 1713.5  L 1625 1703.5  L 1612.9 1693.5  L 1617.8 1703.5  L 1612.9 1713.5  Z " fill-rule="nonzero" fill="#70b603" stroke="none" />
</svg>