<?xml version="1.0" encoding="utf-8"?>
<svg version="1.1" xmlns:xlink="http://www.w3.org/1999/xlink" width="29px" height="28px" xmlns="http://www.w3.org/2000/svg">
  <g transform="matrix(1 0 0 1 -955 -353 )">
    <path d="M 4.474609375 23.3725961538462  C 4.71375868055556 23.1594551282051  4.83333333333333 22.9070512820513  4.83333333333333 22.6153846153846  C 4.83333333333333 22.3237179487179  4.71375868055556 22.0713141025641  4.474609375 21.8581730769231  C 4.23546006944444 21.6450320512821  3.95225694444445 21.5384615384615  3.625 21.5384615384615  C 3.29774305555556 21.5384615384615  3.01453993055556 21.6450320512821  2.775390625 21.8581730769231  C 2.53624131944444 22.0713141025641  2.41666666666667 22.3237179487179  2.41666666666667 22.6153846153846  C 2.41666666666667 22.9070512820513  2.53624131944444 23.1594551282051  2.775390625 23.3725961538462  C 3.01453993055556 23.5857371794872  3.29774305555556 23.6923076923077  3.625 23.6923076923077  C 3.95225694444445 23.6923076923077  4.23546006944444 23.5857371794872  4.474609375 23.3725961538462  Z M 26.1774088541667 14.2860576923077  C 26.4480251736111 13.770032051282  26.5833333333333 13.3157051282051  26.5833333333333 12.9230769230769  C 26.5833333333333 12.3509615384615  26.337890625 11.8489583333333  25.8470052083333 11.4170673076923  C 25.3561197916667 10.9851762820513  24.7960069444444 10.7692307692308  24.1666666666667 10.7692307692308  L 17.5208333333333 10.7692307692308  C 17.5208333333333 10.1185897435897  17.8229166666667 9.22395833333333  18.4270833333333 8.08533653846154  C 19.03125 6.94671474358974  19.3333333333333 6.04647435897436  19.3333333333333 5.38461538461538  C 19.3333333333333 4.28525641025641  19.1319444444444 3.47195512820513  18.7291666666667 2.94471153846154  C 18.3263888888889 2.41746794871795  17.5208333333333 2.15384615384615  16.3125 2.15384615384615  C 15.9852430555556 2.44551282051282  15.74609375 2.92227564102564  15.5950520833333 3.58413461538462  C 15.4440104166667 4.24599358974359  15.2520616319444 4.94991987179487  15.0192057291667 5.69591346153846  C 14.7863498263889 6.44190705128205  14.4118923611111 7.05608974358974  13.8958333333333 7.53846153846154  C 13.6189236111111 7.79647435897436  13.1343315972222 8.30689102564102  12.4420572916667 9.06971153846154  C 12.3917100694444 9.12580128205128  12.2469618055556 9.29407051282051  12.0078125 9.57451923076923  C 11.7686631944444 9.85496794871795  11.5704210069444 10.0849358974359  11.4130859375 10.2644230769231  C 11.2557508680556 10.4439102564103  11.0386284722222 10.6822916666667  10.76171875 10.9795673076923  C 10.4848090277778 11.2768429487179  10.2330729166667 11.5236378205128  10.0065104166667 11.7199519230769  C 9.77994791666667 11.916266025641  9.53765190972222 12.1153846153846  9.27962239583333 12.3173076923077  C 9.02159288194445 12.5192307692308  8.76985677083333 12.6706730769231  8.5244140625 12.7716346153846  C 8.27897135416667 12.8725961538462  8.05555555555556 12.9230769230769  7.85416666666667 12.9230769230769  L 7.25 12.9230769230769  L 7.25 23.6923076923077  L 7.85416666666667 23.6923076923077  C 8.01779513888889 23.6923076923077  8.21603732638889 23.7091346153846  8.44889322916667 23.7427884615385  C 8.68174913194445 23.7764423076923  8.88943142361111 23.8129006410256  9.07194010416667 23.8521634615385  C 9.25444878472222 23.8914262820513  9.49359809027778 23.953125  9.78938802083333 24.0372596153846  C 10.0851779513889 24.1213942307692  10.3054470486111 24.1858974358974  10.4501953125 24.2307692307692  C 10.5949435763889 24.275641025641  10.818359375 24.3457532051282  11.1204427083333 24.4411057692308  C 11.4225260416667 24.5364583333333  11.6050347222222 24.5953525641026  11.66796875 24.6177884615385  C 14.3237847222222 25.4366987179487  16.4761284722222 25.8461538461538  18.125 25.8461538461538  L 20.4095052083333 25.8461538461538  C 22.826171875 25.8461538461538  24.0345052083333 24.9094551282051  24.0345052083333 23.0360576923077  C 24.0345052083333 22.744391025641  24.0030381944444 22.4302884615385  23.9401041666667 22.09375  C 24.3177083333333 21.9142628205128  24.6166449652778 21.6197916666667  24.8369140625 21.2103365384615  C 25.0571831597222 20.8008814102564  25.1673177083333 20.3886217948718  25.1673177083333 19.9735576923077  C 25.1673177083333 19.5584935897436  25.0540364583333 19.1714743589744  24.8274739583333 18.8125  C 25.4945746527778 18.2516025641026  25.828125 17.5841346153846  25.828125 16.8100961538462  C 25.828125 16.5296474358974  25.7651909722222 16.2183493589744  25.6393229166667 15.8762019230769  C 25.5134548611111 15.5340544871795  25.3561197916667 15.2676282051282  25.1673177083333 15.0769230769231  C 25.5700954861111 15.0657051282051  25.9067925347222 14.8020833333333  26.1774088541667 14.2860576923077  Z M 27.5651041666667 9.89423076923077  C 28.5217013888889 10.7467948717949  29 11.7508012820513  29 12.90625  C 29 13.9046474358974  28.6916232638889 14.8189102564103  28.0748697916667 15.6490384615385  C 28.1881510416667 16.0192307692308  28.2447916666667 16.40625  28.2447916666667 16.8100961538462  C 28.2447916666667 17.6738782051282  28.0056423611111 18.4815705128205  27.52734375 19.2331730769231  C 27.5651041666667 19.46875  27.583984375 19.7099358974359  27.583984375 19.9567307692308  C 27.583984375 21.0897435897436  27.2063802083333 22.088141025641  26.451171875 22.9519230769231  C 26.4637586805556 24.5112179487179  25.9288194444444 25.7423878205128  24.8463541666667 26.6454326923077  C 23.7638888888889 27.5484775641026  22.3352864583333 28  20.560546875 28  L 19.880859375 28  L 18.125 28  C 16.9166666666667 28  15.7240668402778 27.8737980769231  14.5472005208333 27.6213942307692  C 13.3703342013889 27.3689903846154  12.0078125 27.0016025641026  10.4596354166667 26.5192307692308  C 8.99956597222222 26.0705128205128  8.13107638888889 25.8461538461538  7.85416666666667 25.8461538461538  L 2.41666666666667 25.8461538461538  C 1.74956597222222 25.8461538461538  1.18001302083333 25.6358173076923  0.7080078125 25.2151442307692  C 0.236002604166667 24.7944711538462  0 24.286858974359  0 23.6923076923077  L 0 12.9230769230769  C 0 12.3285256410256  0.236002604166667 11.8209134615385  0.7080078125 11.4002403846154  C 1.18001302083333 10.9795673076923  1.74956597222222 10.7692307692308  2.41666666666667 10.7692307692308  L 7.58984375 10.7692307692308  C 8.04296875 10.5  8.90516493055556 9.63060897435897  10.1764322916667 8.16105769230769  C 10.9064670138889 7.31971153846154  11.5798611111111 6.60176282051282  12.1966145833333 6.00721153846154  C 12.4986979166667 5.72676282051282  12.7221137152778 5.24719551282051  12.8668619791667 4.56850961538462  C 13.0116102430556 3.88982371794872  13.2035590277778 3.18028846153846  13.4427083333333 2.43990384615385  C 13.6818576388889 1.69951923076923  14.0720486111111 1.09375  14.61328125 0.622596153846152  C 15.1041666666667 0.207532051282053  15.6705729166667 0  16.3125 0  C 17.3697916666667 0  18.3200954861111 0.182291666666669  19.1634114583333 0.546875  C 20.0067274305556 0.911458333333331  20.6486545138889 1.48076923076923  21.0891927083333 2.25480769230769  C 21.5297309027778 3.02884615384615  21.75 4.07211538461538  21.75 5.38461538461538  C 21.75 6.42788461538462  21.4479166666667 7.50480769230769  20.84375 8.61538461538462  L 24.1666666666667 8.61538461538462  C 25.4756944444444 8.61538461538462  26.6085069444444 9.04166666666667  27.5651041666667 9.89423076923077  Z " fill-rule="nonzero" fill="#70b603" stroke="none" transform="matrix(1 0 0 1 955 353 )" />
  </g>
</svg>