<?xml version="1.0" encoding="utf-8"?>
<svg version="1.1" xmlns:xlink="http://www.w3.org/1999/xlink" width="29px" height="28px" xmlns="http://www.w3.org/2000/svg">
  <g transform="matrix(1 0 0 1 -1188 -353 )">
    <path d="M 4.474609375 6.14182692307692  C 4.71375868055556 5.9286858974359  4.83333333333333 5.67628205128205  4.83333333333333 5.38461538461538  C 4.83333333333333 5.09294871794872  4.71375868055556 4.84054487179487  4.474609375 4.62740384615385  C 4.23546006944444 4.41426282051282  3.95225694444445 4.30769230769231  3.625 4.30769230769231  C 3.29774305555556 4.30769230769231  3.01453993055556 4.41426282051282  2.775390625 4.62740384615385  C 2.53624131944444 4.84054487179487  2.41666666666667 5.09294871794872  2.41666666666667 5.38461538461538  C 2.41666666666667 5.67628205128205  2.53624131944444 5.9286858974359  2.775390625 6.14182692307692  C 3.01453993055556 6.35496794871795  3.29774305555556 6.46153846153846  3.625 6.46153846153846  C 3.95225694444445 6.46153846153846  4.23546006944444 6.35496794871795  4.474609375 6.14182692307692  Z M 25.8470052083333 16.5829326923077  C 26.337890625 16.1510416666667  26.5833333333333 15.6490384615385  26.5833333333333 15.0769230769231  C 26.5833333333333 14.6842948717949  26.4480251736111 14.2299679487179  26.1774088541667 13.7139423076923  C 25.9067925347222 13.1979166666667  25.5700954861111 12.9342948717949  25.1673177083333 12.9230769230769  C 25.3561197916667 12.7323717948718  25.5134548611111 12.4659455128205  25.6393229166667 12.1237980769231  C 25.7651909722222 11.7816506410256  25.828125 11.4703525641026  25.828125 11.1899038461538  C 25.828125 10.4158653846154  25.4945746527778 9.74839743589743  24.8274739583333 9.1875  C 25.0540364583333 8.83974358974359  25.1673177083333 8.45272435897436  25.1673177083333 8.02644230769231  C 25.1673177083333 7.61137820512821  25.0571831597222 7.19911858974359  24.8369140625 6.78966346153846  C 24.6166449652778 6.38020833333333  24.3177083333333 6.08573717948718  23.9401041666667 5.90625  C 24.0030381944444 5.56971153846154  24.0345052083333 5.25560897435897  24.0345052083333 4.96394230769231  C 24.0345052083333 4.01041666666667  23.7261284722222 3.3036858974359  23.109375 2.84375  C 22.4926215277778 2.3838141025641  21.63671875 2.15384615384615  20.5416666666667 2.15384615384615  L 18.125 2.15384615384615  C 16.4761284722222 2.15384615384615  14.3237847222222 2.56330128205128  11.66796875 3.38221153846154  C 11.6050347222222 3.40464743589743  11.4225260416667 3.46354166666667  11.1204427083333 3.55889423076923  C 10.818359375 3.65424679487179  10.5949435763889 3.72435897435897  10.4501953125 3.76923076923077  C 10.3054470486111 3.81410256410256  10.0851779513889 3.87860576923077  9.78938802083333 3.96274038461538  C 9.49359809027778 4.046875  9.25444878472222 4.10857371794872  9.07194010416667 4.14783653846154  C 8.88943142361111 4.18709935897436  8.68174913194445 4.22355769230769  8.44889322916667 4.25721153846154  C 8.21603732638889 4.29086538461538  8.01779513888889 4.30769230769231  7.85416666666667 4.30769230769231  L 7.25 4.30769230769231  L 7.25 15.0769230769231  L 7.85416666666667 15.0769230769231  C 8.05555555555556 15.0769230769231  8.27897135416667 15.1274038461538  8.5244140625 15.2283653846154  C 8.76985677083333 15.3293269230769  9.02159288194445 15.4807692307692  9.27962239583333 15.6826923076923  C 9.53765190972222 15.8846153846154  9.77994791666667 16.083733974359  10.0065104166667 16.2800480769231  C 10.2330729166667 16.4763621794872  10.4848090277778 16.7231570512821  10.76171875 17.0204326923077  C 11.0386284722222 17.3177083333333  11.2557508680556 17.5560897435897  11.4130859375 17.7355769230769  C 11.5704210069444 17.9150641025641  11.7686631944444 18.1450320512821  12.0078125 18.4254807692308  C 12.2469618055556 18.7059294871795  12.3917100694444 18.8741987179487  12.4420572916667 18.9302884615385  C 13.1343315972222 19.693108974359  13.6189236111111 20.2035256410256  13.8958333333333 20.4615384615385  C 14.4118923611111 20.9439102564103  14.7863498263889 21.5580929487179  15.0192057291667 22.3040865384615  C 15.2520616319444 23.0500801282051  15.4440104166667 23.7540064102564  15.5950520833333 24.4158653846154  C 15.74609375 25.0777243589744  15.9852430555556 25.5544871794872  16.3125 25.8461538461538  C 17.5208333333333 25.8461538461538  18.3263888888889 25.5825320512821  18.7291666666667 25.0552884615385  C 19.1319444444444 24.5280448717949  19.3333333333333 23.7147435897436  19.3333333333333 22.6153846153846  C 19.3333333333333 21.9535256410256  19.03125 21.0532852564103  18.4270833333333 19.9146634615385  C 17.8229166666667 18.7760416666667  17.5208333333333 17.8814102564103  17.5208333333333 17.2307692307692  L 24.1666666666667 17.2307692307692  C 24.7960069444444 17.2307692307692  25.3561197916667 17.0148237179487  25.8470052083333 16.5829326923077  Z M 28.0748697916667 12.3509615384615  C 28.6916232638889 13.1698717948718  29 14.0841346153846  29 15.09375  C 29 16.2491987179487  28.5217013888889 17.2532051282051  27.5651041666667 18.1057692307692  C 26.6085069444444 18.9583333333333  25.4756944444444 19.3846153846154  24.1666666666667 19.3846153846154  L 20.84375 19.3846153846154  C 21.4479166666667 20.4951923076923  21.75 21.5721153846154  21.75 22.6153846153846  C 21.75 23.9391025641026  21.5297309027778 24.9823717948718  21.0891927083333 25.7451923076923  C 20.6486545138889 26.5192307692308  20.0067274305556 27.0885416666667  19.1634114583333 27.453125  C 18.3200954861111 27.8177083333333  17.3697916666667 28  16.3125 28  C 15.6705729166667 28  15.1041666666667 27.7924679487179  14.61328125 27.3774038461538  C 14.1853298611111 27.0072115384615  13.8454861111111 26.5472756410256  13.59375 25.9975961538462  C 13.3420138888889 25.4479166666667  13.1815321180556 24.9403044871795  13.1123046875 24.4747596153846  C 13.0430772569444 24.0092147435897  12.9329427083333 23.5352564102564  12.7819010416667 23.0528846153846  C 12.630859375 22.5705128205128  12.4357638888889 22.2115384615385  12.1966145833333 21.9759615384615  C 11.5924479166667 21.4150641025641  10.9190538194444 20.7027243589744  10.1764322916667 19.8389423076923  C 8.90516493055556 18.369391025641  8.04296875 17.5  7.58984375 17.2307692307692  L 2.41666666666667 17.2307692307692  C 1.74956597222222 17.2307692307692  1.18001302083333 17.0204326923077  0.7080078125 16.5997596153846  C 0.236002604166667 16.1790865384615  0 15.6714743589744  0 15.0769230769231  L 0 4.30769230769231  C 0 3.71314102564102  0.236002604166667 3.20552884615385  0.7080078125 2.78485576923077  C 1.18001302083333 2.36418269230769  1.74956597222222 2.15384615384615  2.41666666666667 2.15384615384615  L 7.85416666666667 2.15384615384615  C 8.13107638888889 2.15384615384615  8.99956597222222 1.92948717948718  10.4596354166667 1.48076923076923  C 12.0707465277778 0.987179487179484  13.4741753472222 0.616987179487176  14.669921875 0.370192307692308  C 15.8656684027778 0.123397435897434  17.1243489583333 0  18.4459635416667 0  L 20.560546875 0  C 22.3226996527778 0  23.7481553819444 0.443108974358974  24.8369140625 1.32932692307692  C 25.9256727430556 2.21554487179487  26.4637586805556 3.42708333333333  26.451171875 4.96394230769231  L 26.451171875 5.04807692307692  C 27.2063802083333 5.91185897435897  27.583984375 6.91025641025641  27.583984375 8.04326923076923  C 27.583984375 8.2900641025641  27.5651041666667 8.53125  27.52734375 8.76682692307692  C 28.0056423611111 9.51842948717948  28.2447916666667 10.3261217948718  28.2447916666667 11.1899038461538  C 28.2447916666667 11.59375  28.1881510416667 11.9807692307692  28.0748697916667 12.3509615384615  Z " fill-rule="nonzero" fill="#d9001b" stroke="none" transform="matrix(1 0 0 1 1188 353 )" />
  </g>
</svg>