<?xml version="1.0" encoding="utf-8"?>
<svg version="1.1" xmlns:xlink="http://www.w3.org/1999/xlink" width="999px" height="284px" xmlns="http://www.w3.org/2000/svg">
  <defs>
    <mask fill="white" id="clip12">
      <path d="M 0 284  L 0 11.5868055555556  L 0 0  L 999 0  L 999 284  L 682.574660633485 284  L 0 284  Z " fill-rule="evenodd" />
    </mask>
  </defs>
  <g transform="matrix(1 0 0 1 -1624 -912 )">
    <path d="M 0 284  L 0 11.5868055555556  L 0 0  L 999 0  L 999 284  L 682.574660633485 284  L 0 284  Z " fill-rule="nonzero" fill="#f2f2f2" stroke="none" transform="matrix(1 0 0 1 1624 912 )" />
    <path d="M 0 284  L 0 11.5868055555556  L 0 0  L 999 0  L 999 284  L 682.574660633485 284  L 0 284  Z " stroke-width="2" stroke="#f2f2f2" fill="none" transform="matrix(1 0 0 1 1624 912 )" mask="url(#clip12)" />
  </g>
</svg>