<?xml version="1.0" encoding="utf-8"?>
<svg version="1.1" xmlns:xlink="http://www.w3.org/1999/xlink" width="393px" height="12px" preserveAspectRatio="xMinYMid meet" viewBox="1198 126  393 10" xmlns="http://www.w3.org/2000/svg">
  <path d="M 1201 131.5  L 1580 131.5  A 5 5 0 0 1 1585.5 136.5 L 1585.5 308  A 5 5 0 0 0 1590.5 313.5 L 1621 313.5  " stroke-width="3" stroke-dasharray="9,3" stroke="#70b603" fill="none" />
  <path d="M 1202 127.5  A 4 4 0 0 0 1198 131.5 A 4 4 0 0 0 1202 135.5 A 4 4 0 0 0 1206 131.5 A 4 4 0 0 0 1202 127.5 Z M 1611.9 323.5  L 1624 313.5  L 1611.9 303.5  L 1616.8 313.5  L 1611.9 323.5  Z " fill-rule="nonzero" fill="#70b603" stroke="none" />
</svg>