<?xml version="1.0" encoding="utf-8"?>
<svg version="1.1" xmlns:xlink="http://www.w3.org/1999/xlink" width="12px" height="196px" preserveAspectRatio="xMidYMin meet" viewBox="1520 2688  10 196" xmlns="http://www.w3.org/2000/svg">
  <path d="M 1430 2878.5  L 1520 2878.5  A 5 5 0 0 0 1525.5 2873.5 L 1525.5 2699  A 5 5 0 0 1 1530.5 2694.5 L 1621 2694.5  " stroke-width="3" stroke-dasharray="9,3" stroke="#70b603" fill="none" />
  <path d="M 1431 2874.5  A 4 4 0 0 0 1427 2878.5 A 4 4 0 0 0 1431 2882.5 A 4 4 0 0 0 1435 2878.5 A 4 4 0 0 0 1431 2874.5 Z M 1611.9 2704.5  L 1624 2694.5  L 1611.9 2684.5  L 1616.8 2694.5  L 1611.9 2704.5  Z " fill-rule="nonzero" fill="#70b603" stroke="none" />
</svg>