<?xml version="1.0" encoding="utf-8"?>
<svg version="1.1" xmlns:xlink="http://www.w3.org/1999/xlink" width="766px" height="12px" preserveAspectRatio="xMinYMid meet" viewBox="742 1505  766 10" xmlns="http://www.w3.org/2000/svg">
  <path d="M 748.5 1491  L 748.5 1505  A 5 5 0 0 0 753.5 1510.5 L 1497 1510.5  A 5 5 0 0 1 1502.5 1515.5 L 1502.5 2148  A 5 5 0 0 0 1507.5 2153.5 L 1621 2153.5  " stroke-width="3" stroke-dasharray="9,3" stroke="#70b603" fill="none" />
  <path d="M 748.5 1488  A 4 4 0 0 0 744.5 1492 A 4 4 0 0 0 748.5 1496 A 4 4 0 0 0 752.5 1492 A 4 4 0 0 0 748.5 1488 Z M 1611.9 2163.5  L 1624 2153.5  L 1611.9 2143.5  L 1616.8 2153.5  L 1611.9 2163.5  Z " fill-rule="nonzero" fill="#70b603" stroke="none" />
</svg>