<?xml version="1.0" encoding="utf-8"?>
<svg version="1.1" xmlns:xlink="http://www.w3.org/1999/xlink" width="83px" height="12px" preserveAspectRatio="xMinYMid meet" viewBox="1549 3799  83 10" xmlns="http://www.w3.org/2000/svg">
  <path d="M 1482 3810.5  L 1552 3810.5  A 3 3 0 0 0 1555.5 3807.5 A 3 3 0 0 1 1558.5 3804.5 L 1629 3804.5  " stroke-width="3" stroke-dasharray="9,3" stroke="#70b603" fill="none" />
  <path d="M 1483 3806.5  A 4 4 0 0 0 1479 3810.5 A 4 4 0 0 0 1483 3814.5 A 4 4 0 0 0 1487 3810.5 A 4 4 0 0 0 1483 3806.5 Z M 1619.9 3814.5  L 1632 3804.5  L 1619.9 3794.5  L 1624.8 3804.5  L 1619.9 3814.5  Z " fill-rule="nonzero" fill="#70b603" stroke="none" />
</svg>