<?xml version="1.0" encoding="utf-8"?>
<svg version="1.1" xmlns:xlink="http://www.w3.org/1999/xlink" width="86px" height="12px" preserveAspectRatio="xMinYMid meet" viewBox="1471 4483  86 10" xmlns="http://www.w3.org/2000/svg">
  <path d="M 1474 4488.5  L 1546 4488.5  A 5 5 0 0 1 1551.5 4493.5 L 1551.5 4509  A 5 5 0 0 0 1556.5 4514.5 L 1629 4514.5  " stroke-width="3" stroke-dasharray="9,3" stroke="#70b603" fill="none" />
  <path d="M 1475 4484.5  A 4 4 0 0 0 1471 4488.5 A 4 4 0 0 0 1475 4492.5 A 4 4 0 0 0 1479 4488.5 A 4 4 0 0 0 1475 4484.5 Z M 1619.9 4524.5  L 1632 4514.5  L 1619.9 4504.5  L 1624.8 4514.5  L 1619.9 4524.5  Z " fill-rule="nonzero" fill="#70b603" stroke="none" />
</svg>