<?xml version="1.0" encoding="utf-8"?>
<svg version="1.1" xmlns:xlink="http://www.w3.org/1999/xlink" width="103px" height="12px" preserveAspectRatio="xMinYMid meet" viewBox="1446 30  103 10" xmlns="http://www.w3.org/2000/svg">
  <path d="M 1449 35.5  L 1538 35.5  A 5 5 0 0 1 1543.5 40.5 L 1543.5 89  A 5 5 0 0 0 1548.5 94.5 L 1621 94.5  " stroke-width="3" stroke-dasharray="9,3" stroke="#70b603" fill="none" />
  <path d="M 1450 31.5  A 4 4 0 0 0 1446 35.5 A 4 4 0 0 0 1450 39.5 A 4 4 0 0 0 1454 35.5 A 4 4 0 0 0 1450 31.5 Z M 1611.9 104.5  L 1624 94.5  L 1611.9 84.5  L 1616.8 94.5  L 1611.9 104.5  Z " fill-rule="nonzero" fill="#70b603" stroke="none" />
</svg>