<?xml version="1.0" encoding="utf-8"?>
<svg version="1.1" xmlns:xlink="http://www.w3.org/1999/xlink" width="30px" height="30px" xmlns="http://www.w3.org/2000/svg">
  <g transform="matrix(1 0 0 1 -1364 -19 )">
    <path d="M 29.8626592356688 14.945511544586  C 29.8626592356688 6.74238654458599  23.1859574044586 0.0619526273885357  14.9791003184713 0.061952627388535  C 6.77224323248408 0.061952627388535  0.0955414012738847 6.73865445859873  0.0955414012738847 14.945511544586  C 0.0955414012738847 23.1561007165605  6.77224323248408 29.8328025477707  14.9791003184713 29.8328025477707  C 23.1859574044586 29.8328025477707  29.8626592356688 23.1561007165605  29.8626592356688 14.945511544586  Z M 26.2761246019108 14.9492436305732  C 26.2761246019108 17.3564390923567  25.5185111464968 19.5919585987261  24.2272093949045 21.4281449044586  C 23.1113156847134 19.3866938694268  21.3385748407643 17.7595043789809  19.1926253980892 16.8190187101911  C 18.0170183121019 17.6960589171975  16.5577726910828 18.2148188694268  14.9791003184713 18.2148188694268  C 13.4004279458599 18.2148188694268  11.9411823248408 17.6960589171975  10.7655752388535 16.8190187101911  C 8.61962579617834 17.7557722929936  6.8468849522293 19.3866938694268  5.73099124203822 21.4281449044586  C 4.44342157643312 19.5919585987261  3.68207603503185 17.3564390923567  3.68207603503185 14.9492436305732  C 3.68207603503185 8.72039211783439  8.75024880573248 3.65221934713376  14.9791003184713 3.65221934713376  C 21.2079518312102 3.65221934713376  26.2761246019108 8.72039211783439  26.2761246019108 14.9492436305732  Z " fill-rule="nonzero" fill="#5c69ff" stroke="none" transform="matrix(1 0 0 1 1364 19 )" />
  </g>
</svg>