<?xml version="1.0" encoding="utf-8"?>
<svg version="1.1" xmlns:xlink="http://www.w3.org/1999/xlink" width="22px" height="22px" preserveAspectRatio="xMinYMid meet" viewBox="1385 25  22 20" xmlns="http://www.w3.org/2000/svg">
  <path d="M 1395 35.5  L 1484 35.5  A 5 5 0 0 1 1489.5 40.5 L 1489.5 89  A 5 5 0 0 0 1494.5 94.5 L 1621 94.5  " stroke-width="3" stroke-dasharray="9,3" stroke="#70b603" fill="none" />
  <path d="M 1396 31.5  A 4 4 0 0 0 1392 35.5 A 4 4 0 0 0 1396 39.5 A 4 4 0 0 0 1400 35.5 A 4 4 0 0 0 1396 31.5 Z M 1611.9 104.5  L 1624 94.5  L 1611.9 84.5  L 1616.8 94.5  L 1611.9 104.5  Z " fill-rule="nonzero" fill="#70b603" stroke="none" />
</svg>