<?xml version="1.0" encoding="utf-8"?>
<svg version="1.1" xmlns:xlink="http://www.w3.org/1999/xlink" width="99px" height="12px" preserveAspectRatio="xMinYMid meet" viewBox="1525 278  99 10" xmlns="http://www.w3.org/2000/svg">
  <path d="M 1358 228.5  L 1526 228.5  A 5 5 0 0 1 1531.5 233.5 L 1531.5 278  A 5 5 0 0 0 1536.5 283.5 L 1621 283.5  " stroke-width="3" stroke-dasharray="9,3" stroke="#70b603" fill="none" />
  <path d="M 1359 224.5  A 4 4 0 0 0 1355 228.5 A 4 4 0 0 0 1359 232.5 A 4 4 0 0 0 1363 228.5 A 4 4 0 0 0 1359 224.5 Z M 1611.9 293.5  L 1624 283.5  L 1611.9 273.5  L 1616.8 283.5  L 1611.9 293.5  Z " fill-rule="nonzero" fill="#70b603" stroke="none" />
</svg>