<?xml version="1.0" encoding="utf-8"?>
<svg version="1.1" xmlns:xlink="http://www.w3.org/1999/xlink" width="22px" height="22px" preserveAspectRatio="xMinYMid meet" viewBox="1350 217  22 20" xmlns="http://www.w3.org/2000/svg">
  <path d="M 1360 227.5  L 1525 227.5  A 5 5 0 0 1 1530.5 232.5 L 1530.5 500  A 5 5 0 0 0 1535.5 505.5 L 1621 505.5  " stroke-width="3" stroke-dasharray="9,3" stroke="#70b603" fill="none" />
  <path d="M 1361 223.5  A 4 4 0 0 0 1357 227.5 A 4 4 0 0 0 1361 231.5 A 4 4 0 0 0 1365 227.5 A 4 4 0 0 0 1361 223.5 Z M 1611.9 515.5  L 1624 505.5  L 1611.9 495.5  L 1616.8 505.5  L 1611.9 515.5  Z " fill-rule="nonzero" fill="#70b603" stroke="none" />
</svg>