<?xml version="1.0" encoding="utf-8"?>
<svg version="1.1" xmlns:xlink="http://www.w3.org/1999/xlink" width="36px" height="36px" preserveAspectRatio="xMinYMid meet" viewBox="1603 2632  36 34" xmlns="http://www.w3.org/2000/svg">
  <path d="M 1430 2687.5  L 1520 2687.5  A 5 5 0 0 0 1525.5 2682.5 L 1525.5 2654  A 5 5 0 0 1 1530.5 2649.5 L 1621 2649.5  " stroke-width="3" stroke-dasharray="9,3" stroke="#70b603" fill="none" />
  <path d="M 1431 2683.5  A 4 4 0 0 0 1427 2687.5 A 4 4 0 0 0 1431 2691.5 A 4 4 0 0 0 1435 2687.5 A 4 4 0 0 0 1431 2683.5 Z M 1611.9 2659.5  L 1624 2649.5  L 1611.9 2639.5  L 1616.8 2649.5  L 1611.9 2659.5  Z " fill-rule="nonzero" fill="#70b603" stroke="none" />
</svg>