<?xml version="1.0" encoding="utf-8"?>
<svg version="1.1" xmlns:xlink="http://www.w3.org/1999/xlink" width="36px" height="36px" preserveAspectRatio="xMinYMid meet" viewBox="1603 4056  36 34" xmlns="http://www.w3.org/2000/svg">
  <path d="M 1474 4079.5  L 1544 4079.5  A 3 3 0 0 0 1547.5 4076.5 A 3 3 0 0 1 1550.5 4073.5 L 1621 4073.5  " stroke-width="3" stroke-dasharray="9,3" stroke="#70b603" fill="none" />
  <path d="M 1475 4075.5  A 4 4 0 0 0 1471 4079.5 A 4 4 0 0 0 1475 4083.5 A 4 4 0 0 0 1479 4079.5 A 4 4 0 0 0 1475 4075.5 Z M 1611.9 4083.5  L 1624 4073.5  L 1611.9 4063.5  L 1616.8 4073.5  L 1611.9 4083.5  Z " fill-rule="nonzero" fill="#70b603" stroke="none" />
</svg>