<?xml version="1.0" encoding="utf-8"?>
<svg version="1.1" xmlns:xlink="http://www.w3.org/1999/xlink" width="12px" height="38px" preserveAspectRatio="xMidYMin meet" viewBox="1538 4751  10 38" xmlns="http://www.w3.org/2000/svg">
  <path d="M 1466 4757.5  L 1538 4757.5  A 5 5 0 0 1 1543.5 4762.5 L 1543.5 4778  A 5 5 0 0 0 1548.5 4783.5 L 1621 4783.5  " stroke-width="3" stroke-dasharray="9,3" stroke="#70b603" fill="none" />
  <path d="M 1467 4753.5  A 4 4 0 0 0 1463 4757.5 A 4 4 0 0 0 1467 4761.5 A 4 4 0 0 0 1471 4757.5 A 4 4 0 0 0 1467 4753.5 Z M 1611.9 4793.5  L 1624 4783.5  L 1611.9 4773.5  L 1616.8 4783.5  L 1611.9 4793.5  Z " fill-rule="nonzero" fill="#70b603" stroke="none" />
</svg>