<?xml version="1.0" encoding="utf-8"?>
<svg version="1.1" xmlns:xlink="http://www.w3.org/1999/xlink" width="12px" height="102px" preserveAspectRatio="xMidYMin meet" viewBox="1662 30  10 102" xmlns="http://www.w3.org/2000/svg">
  <path d="M 1553 36.5  L 1662 36.5  A 5 5 0 0 1 1667.5 41.5 L 1667.5 121  A 5 5 0 0 0 1672.5 126.5 L 1782 126.5  " stroke-width="3" stroke-dasharray="9,3" stroke="#70b603" fill="none" />
  <path d="M 1554 32.5  A 4 4 0 0 0 1550 36.5 A 4 4 0 0 0 1554 40.5 A 4 4 0 0 0 1558 36.5 A 4 4 0 0 0 1554 32.5 Z M 1772.9 136.5  L 1785 126.5  L 1772.9 116.5  L 1777.8 126.5  L 1772.9 136.5  Z " fill-rule="nonzero" fill="#70b603" stroke="none" />
</svg>