<?xml version="1.0" encoding="utf-8"?>
<svg version="1.1" xmlns:xlink="http://www.w3.org/1999/xlink" width="118px" height="12px" preserveAspectRatio="xMinYMid meet" viewBox="1667 339  118 10" xmlns="http://www.w3.org/2000/svg">
  <path d="M 301.5 142  L 301.5 176  A 5 5 0 0 0 306.5 181.5 L 1668 181.5  A 5 5 0 0 1 1673.5 186.5 L 1673.5 339  A 5 5 0 0 0 1678.5 344.5 L 1782 344.5  " stroke-width="3" stroke-dasharray="9,3" stroke="#70b603" fill="none" />
  <path d="M 301.5 139  A 4 4 0 0 0 297.5 143 A 4 4 0 0 0 301.5 147 A 4 4 0 0 0 305.5 143 A 4 4 0 0 0 301.5 139 Z M 1772.9 354.5  L 1785 344.5  L 1772.9 334.5  L 1777.8 344.5  L 1772.9 354.5  Z " fill-rule="nonzero" fill="#70b603" stroke="none" />
</svg>