<?xml version="1.0" encoding="utf-8"?>
<svg version="1.1" xmlns:xlink="http://www.w3.org/1999/xlink" width="12px" height="11px" preserveAspectRatio="xMinYMid meet" viewBox="847 1396  12 9" xmlns="http://www.w3.org/2000/svg">
  <path d="M 854.373321925452 1398.32321236698  A 5 5 0 0 0 858.5 1400.5 L 1654 1400.5  A 5 5 0 0 1 1659.5 1405.5 L 1659.5 1830  A 5 5 0 0 0 1664.5 1835.5 L 1782 1835.5  " stroke-width="3" stroke="#70b603" fill="none" />
  <path d="M 855.016466453264 1395.0867804545  A 4 4 0 0 0 851.016466453264 1399.0867804545 A 4 4 0 0 0 855.016466453264 1403.0867804545 A 4 4 0 0 0 859.016466453264 1399.0867804545 A 4 4 0 0 0 855.016466453264 1395.0867804545 Z M 1772.9 1845.5  L 1785 1835.5  L 1772.9 1825.5  L 1777.8 1835.5  L 1772.9 1845.5  Z " fill-rule="nonzero" fill="#70b603" stroke="none" />
</svg>