<?xml version="1.0" encoding="utf-8"?>
<svg version="1.1" xmlns:xlink="http://www.w3.org/1999/xlink" width="1245px" height="12px" preserveAspectRatio="xMinYMid meet" viewBox="337 201  1245 10" xmlns="http://www.w3.org/2000/svg">
  <path d="M 336 231.5  L 338 231.5  A 5 5 0 0 0 343.5 226.5 L 343.5 211  A 5 5 0 0 1 348.5 206.5 L 1571 206.5  A 5 5 0 0 1 1576.5 211.5 L 1576.5 1100  A 5 5 0 0 0 1581.5 1105.5 L 1782 1105.5  " stroke-width="3" stroke="#70b603" fill="none" />
  <path d="M 337 227.5  A 4 4 0 0 0 333 231.5 A 4 4 0 0 0 337 235.5 A 4 4 0 0 0 341 231.5 A 4 4 0 0 0 337 227.5 Z M 1772.9 1115.5  L 1785 1105.5  L 1772.9 1095.5  L 1777.8 1105.5  L 1772.9 1115.5  Z " fill-rule="nonzero" fill="#70b603" stroke="none" />
</svg>