<?xml version="1.0" encoding="utf-8"?>
<svg version="1.1" xmlns:xlink="http://www.w3.org/1999/xlink" width="12px" height="851.393939393939px" preserveAspectRatio="xMidYMin meet" viewBox="140 554.606060606061  10 851.393939393939" xmlns="http://www.w3.org/2000/svg">
  <path d="M 855 1400.5  L 150 1400.5  A 5 5 0 0 1 145.5 1395.5 L 145.5 565.606060606061  A 5 5 0 0 1 150.5 561.106060606061 L 259.80303030303 561.106060606061  A 0.196969696969688 0.196969696969688 0 0 1 260.5 561.30303030303 A 0.196969696969745 0.196969696969745 0 0 0 260.69696969697 561.5 L 262 561.5  " stroke-width="3" stroke="#70b603" fill="none" />
  <path d="M 854 1396.5  A 4 4 0 0 0 850 1400.5 A 4 4 0 0 0 854 1404.5 A 4 4 0 0 0 858 1400.5 A 4 4 0 0 0 854 1396.5 Z M 252.9 571.5  L 265 561.5  L 252.9 551.5  L 257.8 561.5  L 252.9 571.5  Z " fill-rule="nonzero" fill="#70b603" stroke="none" />
</svg>