<?xml version="1.0" encoding="utf-8"?>
<svg version="1.1" xmlns:xlink="http://www.w3.org/1999/xlink" width="12px" height="1162px" preserveAspectRatio="xMidYMin meet" viewBox="1595 225  10 1162" xmlns="http://www.w3.org/2000/svg">
  <path d="M 979 231.5  L 1573 231.5  A 3 3 0 0 1 1576 228.5 A 3 3 0 0 1 1579 231.5 L 1595 231.5  A 5 5 0 0 1 1600.5 236 L 1600.5 1102  A 3 3 0 0 1 1603.5 1105 A 3 3 0 0 1 1600.5 1108 L 1600.5 1376  A 5 5 0 0 0 1605.5 1381.5 L 1786 1381.5  " stroke-width="3" stroke="#70b603" fill="none" />
  <path d="M 980 227.5  A 4 4 0 0 0 976 231.5 A 4 4 0 0 0 980 235.5 A 4 4 0 0 0 984 231.5 A 4 4 0 0 0 980 227.5 Z M 1776.9 1391.5  L 1789 1381.5  L 1776.9 1371.5  L 1781.8 1381.5  L 1776.9 1391.5  Z " fill-rule="nonzero" fill="#70b603" stroke="none" />
</svg>