<?xml version="1.0" encoding="utf-8"?>
<svg version="1.1" xmlns:xlink="http://www.w3.org/1999/xlink" width="12px" height="68px" preserveAspectRatio="xMidYMin meet" viewBox="849 1395  10 68" xmlns="http://www.w3.org/2000/svg">
  <path d="M 854.5 1397  A 3 3 0 0 1 857.5 1400 A 3 3 0 0 1 854.5 1403 L 854.5 1452  A 5 5 0 0 1 849.5 1457.5 L 473 1457.5  " stroke-width="3" stroke="#70b603" fill="none" />
  <path d="M 856.355109409209 1393.64233821767  A 4 4 0 0 0 852.355109409209 1397.64233821767 A 4 4 0 0 0 856.355109409209 1401.64233821767 A 4 4 0 0 0 860.355109409209 1397.64233821767 A 4 4 0 0 0 856.355109409209 1393.64233821767 Z M 482.1 1447.5  L 470 1457.5  L 482.1 1467.5  L 477.2 1457.5  L 482.1 1447.5  Z " fill-rule="nonzero" fill="#70b603" stroke="none" />
</svg>